<mxfile host="app.diagrams.net" modified="2020-11-16T00:02:25.563Z" agent="5.0 (Windows NT 10.0; Win64; x64) AppleWebKit/537.36 (KHTML, like Gecko) Chrome/86.0.4240.193 Safari/537.36" etag="B4jSf-K2JgWAyoNDti95" version="13.9.9" type="github">
  <diagram id="hkz-iaXpFmWoAraDN1t4" name="Page-1">
    <mxGraphModel dx="1730" dy="2136" grid="1" gridSize="10" guides="1" tooltips="1" connect="1" arrows="1" fold="1" page="1" pageScale="1" pageWidth="827" pageHeight="1169" math="0" shadow="0">
      <root>
        <mxCell id="0" />
        <mxCell id="1" parent="0" />
        <mxCell id="iZmrzYQ0AmdRKnJRxA6O-11" value="&lt;font style=&quot;font-size: 30px&quot;&gt;Applikation&lt;/font&gt;" style="rounded=0;whiteSpace=wrap;html=1;backgroundOutline=0;" vertex="1" parent="1">
          <mxGeometry x="240" y="-170" width="320" height="860" as="geometry" />
        </mxCell>
        <mxCell id="iZmrzYQ0AmdRKnJRxA6O-1" value="Spieler" style="shape=umlActor;verticalLabelPosition=bottom;verticalAlign=top;html=1;outlineConnect=0;" vertex="1" parent="1">
          <mxGeometry x="50" y="100" width="80" height="140" as="geometry" />
        </mxCell>
        <mxCell id="iZmrzYQ0AmdRKnJRxA6O-6" value="Spielertod" style="ellipse;whiteSpace=wrap;html=1;" vertex="1" parent="1">
          <mxGeometry x="340" y="150" width="120" height="80" as="geometry" />
        </mxCell>
        <mxCell id="iZmrzYQ0AmdRKnJRxA6O-7" value="Bombenlegen und Explosion" style="ellipse;whiteSpace=wrap;html=1;" vertex="1" parent="1">
          <mxGeometry x="430" y="60" width="120" height="80" as="geometry" />
        </mxCell>
        <mxCell id="iZmrzYQ0AmdRKnJRxA6O-8" value="Spielerbewegung" style="ellipse;whiteSpace=wrap;html=1;" vertex="1" parent="1">
          <mxGeometry x="354" y="-30" width="120" height="80" as="geometry" />
        </mxCell>
        <mxCell id="iZmrzYQ0AmdRKnJRxA6O-10" value="Applikationsstart und Namenseingabe" style="ellipse;whiteSpace=wrap;html=1;" vertex="1" parent="1">
          <mxGeometry x="280" y="-130" width="120" height="80" as="geometry" />
        </mxCell>
        <mxCell id="iZmrzYQ0AmdRKnJRxA6O-14" value="Labyrinth speichern und benutzen" style="ellipse;whiteSpace=wrap;html=1;" vertex="1" parent="1">
          <mxGeometry x="240" y="600" width="120" height="80" as="geometry" />
        </mxCell>
        <mxCell id="iZmrzYQ0AmdRKnJRxA6O-15" value="Labyrintheditor benutzen" style="ellipse;whiteSpace=wrap;html=1;" vertex="1" parent="1">
          <mxGeometry x="294" y="520" width="120" height="80" as="geometry" />
        </mxCell>
        <mxCell id="iZmrzYQ0AmdRKnJRxA6O-16" value="Nachricht schreiben / Spielstandnachrichten" style="ellipse;whiteSpace=wrap;html=1;" vertex="1" parent="1">
          <mxGeometry x="354" y="440" width="120" height="80" as="geometry" />
        </mxCell>
        <mxCell id="iZmrzYQ0AmdRKnJRxA6O-17" value="Leveleditor starten" style="ellipse;whiteSpace=wrap;html=1;" vertex="1" parent="1">
          <mxGeometry x="430" y="370" width="120" height="80" as="geometry" />
        </mxCell>
        <mxCell id="iZmrzYQ0AmdRKnJRxA6O-18" value="Spiel beenden und Hiscore anzeigen" style="ellipse;whiteSpace=wrap;html=1;" vertex="1" parent="1">
          <mxGeometry x="340" y="290" width="120" height="80" as="geometry" />
        </mxCell>
        <mxCell id="iZmrzYQ0AmdRKnJRxA6O-19" style="edgeStyle=orthogonalEdgeStyle;rounded=0;orthogonalLoop=1;jettySize=auto;html=1;exitX=0.5;exitY=1;exitDx=0;exitDy=0;" edge="1" parent="1" source="iZmrzYQ0AmdRKnJRxA6O-11" target="iZmrzYQ0AmdRKnJRxA6O-11">
          <mxGeometry relative="1" as="geometry" />
        </mxCell>
        <mxCell id="iZmrzYQ0AmdRKnJRxA6O-22" value="" style="endArrow=classic;html=1;" edge="1" parent="1" source="iZmrzYQ0AmdRKnJRxA6O-1" target="iZmrzYQ0AmdRKnJRxA6O-10">
          <mxGeometry width="50" height="50" relative="1" as="geometry">
            <mxPoint x="340" y="340" as="sourcePoint" />
            <mxPoint x="390" y="290" as="targetPoint" />
          </mxGeometry>
        </mxCell>
        <mxCell id="iZmrzYQ0AmdRKnJRxA6O-24" value="" style="endArrow=classic;html=1;entryX=0.044;entryY=0.813;entryDx=0;entryDy=0;entryPerimeter=0;" edge="1" parent="1" source="iZmrzYQ0AmdRKnJRxA6O-1" target="iZmrzYQ0AmdRKnJRxA6O-8">
          <mxGeometry width="50" height="50" relative="1" as="geometry">
            <mxPoint x="720" y="196.60714285714312" as="sourcePoint" />
            <mxPoint x="864.6268720801288" y="-10.002674400184105" as="targetPoint" />
          </mxGeometry>
        </mxCell>
        <mxCell id="iZmrzYQ0AmdRKnJRxA6O-25" value="" style="endArrow=classic;html=1;" edge="1" parent="1" source="iZmrzYQ0AmdRKnJRxA6O-1" target="iZmrzYQ0AmdRKnJRxA6O-6">
          <mxGeometry width="50" height="50" relative="1" as="geometry">
            <mxPoint x="670" y="316.6071428571431" as="sourcePoint" />
            <mxPoint x="814.6268720801288" y="109.9973255998159" as="targetPoint" />
          </mxGeometry>
        </mxCell>
        <mxCell id="iZmrzYQ0AmdRKnJRxA6O-26" value="" style="endArrow=classic;html=1;" edge="1" parent="1" source="iZmrzYQ0AmdRKnJRxA6O-1" target="iZmrzYQ0AmdRKnJRxA6O-7">
          <mxGeometry width="50" height="50" relative="1" as="geometry">
            <mxPoint x="890" y="326.6071428571431" as="sourcePoint" />
            <mxPoint x="1034.6268720801288" y="119.9973255998159" as="targetPoint" />
          </mxGeometry>
        </mxCell>
        <mxCell id="iZmrzYQ0AmdRKnJRxA6O-27" value="" style="endArrow=classic;html=1;" edge="1" parent="1" target="iZmrzYQ0AmdRKnJRxA6O-18">
          <mxGeometry width="50" height="50" relative="1" as="geometry">
            <mxPoint x="120" y="170" as="sourcePoint" />
            <mxPoint x="1044.6268720801288" y="129.9973255998159" as="targetPoint" />
          </mxGeometry>
        </mxCell>
        <mxCell id="iZmrzYQ0AmdRKnJRxA6O-31" value="" style="endArrow=classic;html=1;" edge="1" parent="1" source="iZmrzYQ0AmdRKnJRxA6O-1" target="iZmrzYQ0AmdRKnJRxA6O-14">
          <mxGeometry width="50" height="50" relative="1" as="geometry">
            <mxPoint x="100" y="170" as="sourcePoint" />
            <mxPoint x="210" y="330" as="targetPoint" />
          </mxGeometry>
        </mxCell>
        <mxCell id="iZmrzYQ0AmdRKnJRxA6O-32" value="" style="endArrow=classic;html=1;" edge="1" parent="1" source="iZmrzYQ0AmdRKnJRxA6O-1" target="iZmrzYQ0AmdRKnJRxA6O-15">
          <mxGeometry width="50" height="50" relative="1" as="geometry">
            <mxPoint x="80" y="160" as="sourcePoint" />
            <mxPoint x="220" y="340" as="targetPoint" />
          </mxGeometry>
        </mxCell>
        <mxCell id="iZmrzYQ0AmdRKnJRxA6O-33" value="" style="endArrow=classic;html=1;" edge="1" parent="1" source="iZmrzYQ0AmdRKnJRxA6O-1" target="iZmrzYQ0AmdRKnJRxA6O-16">
          <mxGeometry width="50" height="50" relative="1" as="geometry">
            <mxPoint x="110" y="400" as="sourcePoint" />
            <mxPoint x="230" y="350" as="targetPoint" />
          </mxGeometry>
        </mxCell>
        <mxCell id="iZmrzYQ0AmdRKnJRxA6O-34" value="" style="endArrow=classic;html=1;" edge="1" parent="1" source="iZmrzYQ0AmdRKnJRxA6O-1" target="iZmrzYQ0AmdRKnJRxA6O-17">
          <mxGeometry width="50" height="50" relative="1" as="geometry">
            <mxPoint x="120" y="410" as="sourcePoint" />
            <mxPoint x="240" y="360" as="targetPoint" />
            <Array as="points">
              <mxPoint x="290" y="340" />
            </Array>
          </mxGeometry>
        </mxCell>
      </root>
    </mxGraphModel>
  </diagram>
</mxfile>
